<?xml version="1.0" encoding="utf-8"?><svg xmlns="http://www.w3.org/2000/svg" xmlns:xlink="http://www.w3.org/1999/xlink"><symbol viewBox="0 0 512 512" id="45890" xmlns="http://www.w3.org/2000/svg"><path d="M54.506 420.636c-4.606-1.859-6.907-9.245-4.36-14.002 1.056-1.974 193.541-133.234 200.713-136.871 4.552-2.309 10.28-2.738 14.89-1.116 1.595.561 47.45 31.3 101.9 68.31 108.365 73.656 104.27 70.5 101.151 77.963-.792 1.895-2.487 4.18-3.768 5.077-2.134 1.495-19.21 1.625-205.356 1.567-111.702-.035-203.991-.452-205.17-.928zM7.455 391.214l-2.806-2.413V100.454l2.908-2.501c6.354-5.465 1.362-8.445 112.39 67.088 59.76 40.655 102.177 70.148 103.442 71.924 2.873 4.034 2.929 11.61.115 15.417-1.117 1.51-47.836 33.908-103.821 71.996C7.988 400.365 13.959 396.809 7.455 391.214zm395.59-65.146c-54.668-37.158-100.816-68.93-102.55-70.604-6.135-5.919-6.135-15.754 0-21.673 1.734-1.674 47.882-33.445 102.55-70.603 109.02-74.102 103.32-70.72 109.798-65.147l2.806 2.413v288.347l-2.806 2.413c-6.478 5.573-.777 8.955-109.798-65.146zM250.954 221.7C244.813 218.632 53.86 88.63 50.899 85.501c-4.294-4.536-3.124-11.595 2.395-14.448 4.146-2.145 407.564-2.145 411.71 0 5.52 2.854 6.686 9.902 2.395 14.47-3.21 3.418-196.195 134.732-200.968 136.746-4.446 1.877-11.072 1.634-15.477-.568z"/></symbol><symbol viewBox="0 0 284.929 284.929" id="arrow-up" xmlns="http://www.w3.org/2000/svg"><path d="M17.128 167.872c1.903 1.902 4.093 2.854 6.567 2.854s4.664-.952 6.567-2.854L142.466 55.666l112.208 112.206c1.902 1.902 4.093 2.854 6.563 2.854 2.478 0 4.668-.952 6.57-2.854l14.274-14.277c1.902-1.902 2.847-4.093 2.847-6.563 0-2.475-.951-4.665-2.847-6.567L149.028 7.419c-1.901-1.906-4.088-2.853-6.562-2.853s-4.665.95-6.567 2.853L2.856 140.464C.95 142.367 0 144.554 0 147.034c0 2.468.953 4.658 2.856 6.561l14.272 14.277z"/><path d="M149.028 117.055c-1.901-1.906-4.088-2.856-6.562-2.856s-4.665.953-6.567 2.856L2.856 250.1C.95 252.003 0 254.192 0 256.67c0 2.472.953 4.661 2.856 6.564l14.272 14.276c1.903 1.903 4.093 2.848 6.567 2.848s4.664-.951 6.567-2.848l112.204-112.209L254.674 277.51c1.902 1.903 4.093 2.852 6.563 2.852 2.478 0 4.668-.948 6.57-2.852l14.274-14.276c1.902-1.903 2.847-4.093 2.847-6.564 0-2.478-.951-4.667-2.847-6.57L149.028 117.055z"/></symbol><symbol viewBox="0 0 28 42" id="location" xmlns="http://www.w3.org/2000/svg"><path d="M9.724 35.418C3.063 24.452-.16 16.506.471 12.61 2.59-.45 18.499-3.857 25.868 7.173c3.046 4.56 2.858 8.354-.794 16.075-3.916 8.278-9.83 18.027-10.936 18.027-.47 0-2.457-2.636-4.414-5.857zm9.414-16.143c4.33-4.33 1.417-12-4.557-12-4.289 0-7.443 2.95-7.443 6.961 0 6.033 7.751 9.288 12 5.04z"/></symbol><symbol viewBox="0 0 38 40" id="logo" xmlns="http://www.w3.org/2000/svg"><path d="M0 36.6v-2.371a3 3 0 012.965-3.027h17.006c2.326 0 3.525 1.125 3.525 2.8v3.374c0 1.749-1.151 2.624-3.525 2.624H2.742C1.012 40 0 38.825 0 36.6zm3.356.2H20.14a.226.226 0 00.223-.228v-1.943a.226.226 0 00-.223-.228H3.356a.226.226 0 00-.223.228v1.943a.226.226 0 00.223.228zm9.735-23.993a.226.226 0 01.223.228v7.427l-.886 2.438a.228.228 0 00.21.307h1.243a.223.223 0 00.182-.1L30.263.064a.22.22 0 01.3-.062l3.246 2a.23.23 0 01.079.308l-.957 1.713a.233.233 0 00-.029.113v10.043a.226.226 0 00.223.228h.676a.227.227 0 01.221.26L33.3 19.81a.225.225 0 01-.221.2h-.185v1.549a.226.226 0 00.121.2 2.561 2.561 0 01.741 3.944.231.231 0 00.016.329l3.6 3.173a.229.229 0 01-.146.4h-.515a.219.219 0 01-.146-.055l-3.6-3.168a.217.217 0 00-.216-.044 2.859 2.859 0 01-.948.167 2.147 2.147 0 01-.922-.214.219.219 0 00-.235.029l-3.9 3.233a.221.221 0 01-.141.051h-.454a.258.258 0 01-.156-.456l3.982-3.3a.228.228 0 00.045-.3 2.5 2.5 0 01-.406-1.422.783.783 0 111.566 0 1.2 1.2 0 00.031.286.221.221 0 00.357.121.385.385 0 01.5.008l.172.151a.219.219 0 00.282.008.843.843 0 00.289-.706.972.972 0 00-.834-.924.8.8 0 01-.654-.789v-2.048a.226.226 0 00-.223-.228h-.463a.225.225 0 01-.219-.183l-1.006-5.143a.226.226 0 01.219-.273h.686a.226.226 0 00.223-.228V9.535a.222.222 0 00-.421-.105l-8.952 17.593a.239.239 0 00-.025.105v.647a.226.226 0 01-.223.228h-2.686a.226.226 0 00-.224.228v1.144a.225.225 0 01-.223.228h-11.3a.226.226 0 01-.223-.228v-1.144a.226.226 0 00-.22-.231H1.79a.226.226 0 01-.223-.228V13.035a.226.226 0 01.223-.228h11.3zm7 4.159l-.01.014 2.614 1.737a.225.225 0 00.33-.274l-1.243-3.255a.222.222 0 00-.389-.051zm11.238-2.787a.226.226 0 00.224.228h.336a.226.226 0 00.224-.228V6.5a.223.223 0 00-.421-.107l-.337.648a.233.233 0 00-.026.107v7.029zm-.384-8.5l.96-1.863a.229.229 0 00-.075-.3l-1.5-1.005a.224.224 0 00-.342.233l.537 2.868a.222.222 0 00.418.066zM28.528 4.36l-1.109 1.965a.231.231 0 00.073.305l1.79 1.177a.224.224 0 00.339-.241l-.681-3.142a.222.222 0 00-.414-.065zM28.4 9.522l-1.656-1.1a.225.225 0 00-.34.24l.649 3.011a.221.221 0 00.414.059l1.008-1.911a.231.231 0 00-.075-.299zm-3.374.394l-1.259 1.874a.231.231 0 00.064.321l1.892 1.237a.224.224 0 00.339-.238L25.429 10a.221.221 0 00-.402-.084zm.394 5.523l-2.087-1.46a.225.225 0 00-.335.268l1.188 3.249a.222.222 0 00.408.024l.9-1.79a.232.232 0 00-.073-.292zm-3.8 7.314l1.042-1.877a.232.232 0 00-.065-.3l-2.586-1.886a.225.225 0 00-.336.274l1.545 3.763a.221.221 0 00.398.025zm-1.585 1.5l-1.861-4.1a.221.221 0 00-.382-.039l-1.514 2.108a.231.231 0 00.069.332l3.374 1.988a.225.225 0 00.312-.291zm-15.11-3.446H9.96a.226.226 0 00.224-.228v-4.344a.226.226 0 00-.224-.228H4.925a.226.226 0 00-.224.228v4.343a.226.226 0 00.222.227zm32.294 13.6h.56a.226.226 0 01.223.228v1.144a.226.226 0 01-.223.228H25.692a.226.226 0 01-.223-.228v-1.15a.226.226 0 01.223-.228h1.12a.226.226 0 00.224-.228V32.23a.226.226 0 00-.224-.23h-1.12a.226.226 0 01-.223-.228v-1.141a.226.226 0 01.223-.228h12.085a.226.226 0 01.223.228v1.144a.226.226 0 01-.223.228h-1.12a.226.226 0 00-.223.228v1.944a.226.226 0 00.223.228h.56z" fill-rule="evenodd"/></symbol><symbol viewBox="0 0 489.154 489.154" id="mail-closed" xmlns="http://www.w3.org/2000/svg"><path d="M0 386.634L143.542 214.88 0 99.551zm489.154 0V99.551L345.611 214.88zm-1.217 12.041h1.217v-1.018zM0 398.675h1.219L0 397.657zm480.793 0l-.854-1.018-145.352-173.921-90.01 72.322-90.01-72.322L9.215 397.657l-.854 1.018z"/><path d="M152.61 204.029l5.511 4.43 5.514 4.429 80.942 65.035 80.943-65.035 5.513-4.429 5.511-4.43 141.322-113.55H11.287z"/></symbol><symbol viewBox="0 0 348.077 348.077" id="phone" xmlns="http://www.w3.org/2000/svg"><path d="M340.273 275.083l-53.755-53.761c-10.707-10.664-28.438-10.34-39.518.744l-27.082 27.076a792.327 792.327 0 01-5.344-2.973c-17.102-9.476-40.509-22.464-65.14-47.113-24.704-24.701-37.704-48.144-47.209-65.257-1.003-1.813-1.964-3.561-2.913-5.221l18.176-18.149 8.936-8.947c11.097-11.1 11.403-28.826.721-39.521L73.39 8.194c-10.682-10.68-28.421-10.356-39.518.744l-15.15 15.237.414.411c-5.08 6.482-9.325 13.958-12.484 22.02C3.74 54.28 1.927 61.603 1.098 68.941-6 127.785 20.89 181.564 93.866 254.541c100.875 100.868 182.167 93.248 185.674 92.876 7.638-.913 14.958-2.738 22.397-5.627 7.992-3.122 15.463-7.361 21.941-12.43l.331.294 15.348-15.029c11.074-11.098 11.393-28.83.716-39.542z"/></symbol></svg>