<?xml version="1.0" encoding="UTF-8" standalone="no"?>
<!-- Created with Inkscape (http://www.inkscape.org/) -->

<svg
   xmlns:dc="http://purl.org/dc/elements/1.1/"
   xmlns:cc="http://creativecommons.org/ns#"
   xmlns:rdf="http://www.w3.org/1999/02/22-rdf-syntax-ns#"
   xmlns:svg="http://www.w3.org/2000/svg"
   xmlns="http://www.w3.org/2000/svg"
   xmlns:sodipodi="http://sodipodi.sourceforge.net/DTD/sodipodi-0.dtd"
   xmlns:inkscape="http://www.inkscape.org/namespaces/inkscape"
   version="1.1"
   id="svg10"
   width="512"
   height="512"
   viewBox="0 0 512 512"
   sodipodi:docname="45890.svg"
   inkscape:version="0.92.4 (5da689c313, 2019-01-14)">
  <metadata
     id="metadata16">
    <rdf:RDF>
      <cc:Work
         rdf:about="">
        <dc:format>image/svg+xml</dc:format>
        <dc:type
           rdf:resource="http://purl.org/dc/dcmitype/StillImage" />
        <dc:title></dc:title>
      </cc:Work>
    </rdf:RDF>
  </metadata>
  <defs
     id="defs14" />
  <sodipodi:namedview
     pagecolor="#ffffff"
     bordercolor="#666666"
     borderopacity="1"
     objecttolerance="10"
     gridtolerance="10"
     guidetolerance="10"
     inkscape:pageopacity="0"
     inkscape:pageshadow="2"
     inkscape:window-width="776"
     inkscape:window-height="480"
     id="namedview12"
     showgrid="false"
     inkscape:zoom="0.48204668"
     inkscape:cx="235.76966"
     inkscape:cy="256"
     inkscape:window-x="0"
     inkscape:window-y="0"
     inkscape:window-maximized="1"
     inkscape:current-layer="svg10" />
  <path
     style="fill:#000000"
     d="m 54.505979,420.63599 c -4.6063,-1.85889 -6.9065,-9.24467 -4.3606,-14.00177 1.0565,-1.97406 193.541601,-133.23427 200.713801,-136.87153 4.5514,-2.30819 10.2795,-2.73725 14.8906,-1.11537 1.5945,0.56087 47.4492,31.30049 101.8992,68.31028 108.3649,73.65585 104.2695,70.4993 101.1512,77.9623 -0.792,1.89546 -2.4876,4.1801 -3.7681,5.07698 -2.1345,1.4951 -19.2097,1.62542 -205.3556,1.5673 -111.7022,-0.0349 -203.991501,-0.45239 -205.170501,-0.92819 z M 7.4547832,391.21415 4.648983,388.80074 V 244.62757 100.4544 l 2.9082002,-2.501528 c 6.3534998,-5.465024 1.3616,-8.444778 112.3898968,67.087928 59.7606,40.65519 102.1774,70.14798 103.4423,71.92444 2.8724,4.03389 2.9286,11.60898 0.1144,15.41627 -1.1163,1.51033 -47.8358,33.90856 -103.821,71.99606 C 7.9875832,400.3654 13.959183,396.80903 7.4547832,391.21415 Z M 403.04538,326.06757 c -54.668,-37.158 -100.816,-68.92972 -102.5511,-70.60381 -6.1343,-5.91868 -6.1343,-15.7537 0,-21.67238 1.7351,-1.67409 47.8831,-33.44581 102.5511,-70.60381 109.0202,-74.101376 103.3195,-70.718982 109.7978,-65.146578 l 2.8058,2.413408 v 144.17317 144.17317 l -2.8058,2.41341 c -6.4783,5.5724 -0.7776,8.95478 -109.7978,-65.14658 z M 250.95398,221.70133 C 244.81288,218.63237 53.859879,88.628834 50.898979,85.501004 c -4.2937,-4.5357 -3.1236,-11.59466 2.395,-14.448441 4.1463,-2.144126 407.563701,-2.144126 411.710001,0 5.5199,2.854485 6.6865,9.902601 2.395,14.470741 -3.2104,3.41732 -196.1953,134.731416 -200.9679,136.745966 -4.4457,1.87657 -11.0721,1.63341 -15.4771,-0.56794 z"
     id="path20"
     inkscape:connector-curvature="0" />
</svg>
