<svg xmlns="http://www.w3.org/2000/svg" width="512" height="512"><path d="M54.506 420.636c-4.606-1.859-6.907-9.245-4.36-14.002 1.056-1.974 193.541-133.234 200.713-136.871 4.552-2.309 10.28-2.738 14.89-1.116 1.595.561 47.45 31.3 101.9 68.31 108.365 73.656 104.27 70.5 101.151 77.963-.792 1.895-2.487 4.18-3.768 5.077-2.134 1.495-19.21 1.625-205.356 1.567-111.702-.035-203.991-.452-205.17-.928zM7.455 391.214l-2.806-2.413V100.454l2.908-2.501c6.354-5.465 1.362-8.445 112.39 67.088 59.76 40.655 102.177 70.148 103.442 71.924 2.873 4.034 2.929 11.61.115 15.417-1.117 1.51-47.836 33.908-103.821 71.996C7.988 400.365 13.959 396.809 7.455 391.214zm395.59-65.146c-54.668-37.158-100.816-68.93-102.55-70.604-6.135-5.919-6.135-15.754 0-21.673 1.734-1.674 47.882-33.445 102.55-70.603 109.02-74.102 103.32-70.72 109.798-65.147l2.806 2.413v288.347l-2.806 2.413c-6.478 5.573-.777 8.955-109.798-65.146zM250.954 221.7C244.813 218.632 53.86 88.63 50.899 85.501c-4.294-4.536-3.124-11.595 2.395-14.448 4.146-2.145 407.564-2.145 411.71 0 5.52 2.854 6.686 9.902 2.395 14.47-3.21 3.418-196.195 134.732-200.968 136.746-4.446 1.877-11.072 1.634-15.477-.568z"/></svg>