<svg xmlns="http://www.w3.org/2000/svg" width="38" height="40"><path d="M0 36.6v-2.371a3 3 0 012.965-3.027h17.006c2.326 0 3.525 1.125 3.525 2.8v3.374c0 1.749-1.151 2.624-3.525 2.624H2.742C1.012 40 0 38.825 0 36.6zm3.356.2H20.14a.226.226 0 00.223-.228v-1.943a.226.226 0 00-.223-.228H3.356a.226.226 0 00-.223.228v1.943a.226.226 0 00.223.228zm9.735-23.993a.226.226 0 01.223.228v7.427l-.886 2.438a.228.228 0 00.21.307h1.243a.223.223 0 00.182-.1L30.263.064a.22.22 0 01.3-.062l3.246 2a.23.23 0 01.079.308l-.957 1.713a.233.233 0 00-.029.113v10.043a.226.226 0 00.223.228h.676a.227.227 0 01.221.26L33.3 19.81a.225.225 0 01-.221.2h-.185v1.549a.226.226 0 00.121.2 2.561 2.561 0 01.741 3.944.231.231 0 00.016.329l3.6 3.173a.229.229 0 01-.146.4h-.515a.219.219 0 01-.146-.055l-3.6-3.168a.217.217 0 00-.216-.044 2.859 2.859 0 01-.948.167 2.147 2.147 0 01-.922-.214.219.219 0 00-.235.029l-3.9 3.233a.221.221 0 01-.141.051h-.454a.258.258 0 01-.156-.456l3.982-3.3a.228.228 0 00.045-.3 2.5 2.5 0 01-.406-1.422.783.783 0 111.566 0 1.2 1.2 0 00.031.286.221.221 0 00.357.121.385.385 0 01.5.008l.172.151a.219.219 0 00.282.008.843.843 0 00.289-.706.972.972 0 00-.834-.924.8.8 0 01-.654-.789v-2.048a.226.226 0 00-.223-.228h-.463a.225.225 0 01-.219-.183l-1.006-5.143a.226.226 0 01.219-.273h.686a.226.226 0 00.223-.228V9.535a.222.222 0 00-.421-.105l-8.952 17.593a.239.239 0 00-.025.105v.647a.226.226 0 01-.223.228h-2.686a.226.226 0 00-.224.228v1.144a.225.225 0 01-.223.228h-11.3a.226.226 0 01-.223-.228v-1.144a.226.226 0 00-.22-.231H1.79a.226.226 0 01-.223-.228V13.035a.226.226 0 01.223-.228h11.3zm7 4.159l-.01.014 2.614 1.737a.225.225 0 00.33-.274l-1.243-3.255a.222.222 0 00-.389-.051zm11.238-2.787a.226.226 0 00.224.228h.336a.226.226 0 00.224-.228V6.5a.223.223 0 00-.421-.107l-.337.648a.233.233 0 00-.026.107v7.029zm-.384-8.5l.96-1.863a.229.229 0 00-.075-.3l-1.5-1.005a.224.224 0 00-.342.233l.537 2.868a.222.222 0 00.418.066zM28.528 4.36l-1.109 1.965a.231.231 0 00.073.305l1.79 1.177a.224.224 0 00.339-.241l-.681-3.142a.222.222 0 00-.414-.065zM28.4 9.522l-1.656-1.1a.225.225 0 00-.34.24l.649 3.011a.221.221 0 00.414.059l1.008-1.911a.231.231 0 00-.075-.299zm-3.374.394l-1.259 1.874a.231.231 0 00.064.321l1.892 1.237a.224.224 0 00.339-.238L25.429 10a.221.221 0 00-.402-.084zm.394 5.523l-2.087-1.46a.225.225 0 00-.335.268l1.188 3.249a.222.222 0 00.408.024l.9-1.79a.232.232 0 00-.073-.292zm-3.8 7.314l1.042-1.877a.232.232 0 00-.065-.3l-2.586-1.886a.225.225 0 00-.336.274l1.545 3.763a.221.221 0 00.398.025zm-1.585 1.5l-1.861-4.1a.221.221 0 00-.382-.039l-1.514 2.108a.231.231 0 00.069.332l3.374 1.988a.225.225 0 00.312-.291zm-15.11-3.446H9.96a.226.226 0 00.224-.228v-4.344a.226.226 0 00-.224-.228H4.925a.226.226 0 00-.224.228v4.343a.226.226 0 00.222.227zm32.294 13.6h.56a.226.226 0 01.223.228v1.144a.226.226 0 01-.223.228H25.692a.226.226 0 01-.223-.228v-1.15a.226.226 0 01.223-.228h1.12a.226.226 0 00.224-.228V32.23a.226.226 0 00-.224-.23h-1.12a.226.226 0 01-.223-.228v-1.141a.226.226 0 01.223-.228h12.085a.226.226 0 01.223.228v1.144a.226.226 0 01-.223.228h-1.12a.226.226 0 00-.223.228v1.944a.226.226 0 00.223.228h.56z" fill="#292929" fill-rule="evenodd"/></svg>